<svg width="53" height="54" viewBox="0 0 53 54" fill="none" xmlns="http://www.w3.org/2000/svg">
<path d="M23.0291 10.62C25.5636 10.0191 28.2073 10.0834 30.7106 10.8068C33.2139 11.5302 35.494 12.8889 37.3358 14.7545C39.1776 16.62 40.5202 18.931 41.2369 21.4691C41.9535 24.0073 42.0206 26.6888 41.4317 29.2605C41.3519 29.592 41.3375 29.9363 41.3894 30.2735C41.4412 30.6106 41.5583 30.9341 41.7338 31.2252C41.9094 31.5164 42.1399 31.7694 42.4122 31.9699C42.6845 32.1703 42.9932 32.3141 43.3205 32.3931C43.5153 32.4186 43.7126 32.4186 43.9075 32.3931C44.4906 32.4104 45.0619 32.2245 45.5263 31.8665C45.9907 31.5085 46.3202 30.9999 46.4599 30.4255C47.255 26.9939 47.1735 23.4132 46.223 20.0225C45.2725 16.6318 43.4845 13.5432 41.0284 11.0493C38.5722 8.55535 35.5292 6.73856 32.1874 5.77093C28.8455 4.8033 25.3155 4.71686 21.9315 5.51979C21.2546 5.67772 20.6672 6.10194 20.2987 6.69913C19.9301 7.29632 19.8105 8.01757 19.9662 8.7042C20.1219 9.39083 20.5401 9.98661 21.1289 10.3605C21.7176 10.7343 22.4287 10.8556 23.1056 10.6977L23.0291 10.62ZM51.3094 48.367L40.4108 37.3121L5.36659 1.76581C5.12931 1.52315 4.84702 1.33055 4.53599 1.19911C4.22496 1.06767 3.89135 1 3.5544 1C3.21746 1 2.88385 1.06767 2.57282 1.19911C2.26179 1.33055 1.97949 1.52315 1.74221 1.76581C1.26683 2.25088 1 2.90706 1 3.59102C1 4.27498 1.26683 4.93116 1.74221 5.41623L9.93535 13.7268C7.11948 17.7132 5.78949 22.5838 6.1821 27.4716C6.5747 32.3594 8.66444 36.9474 12.0793 40.4189L24.7136 53.2342C24.9509 53.4769 25.2332 53.6695 25.5442 53.8009C25.8553 53.9323 26.1889 54 26.5258 54C26.8628 54 27.1964 53.9323 27.5074 53.8009C27.8184 53.6695 28.1007 53.4769 28.338 53.2342L38.5475 42.8784L47.634 52.0951C48.1112 52.5826 48.7598 52.8578 49.4372 52.8602C50.1145 52.8627 50.765 52.5921 51.2456 52.108C51.7262 51.6239 51.9976 50.966 52 50.279C52.0024 49.592 51.7356 48.9321 51.2584 48.4446L51.3094 48.367ZM26.8321 30.8656C26.1155 30.9121 25.3972 30.8047 24.7243 30.5504C24.0514 30.2961 23.4389 29.9007 22.927 29.3899C22.4143 28.8751 22.0149 28.2559 21.7554 27.5731C21.4958 26.8904 21.3819 26.1595 21.4211 25.4288L26.8321 30.8656ZM26.5258 47.6938L15.7037 36.7167C13.2544 34.2219 11.7133 30.9571 11.3331 27.4574C10.9528 23.9577 11.7559 20.4309 13.6108 17.4549L17.3628 21.2606C16.4475 23.187 16.1426 25.3535 16.4899 27.4627C16.8373 29.5719 17.8198 31.5203 19.3026 33.0404C20.2493 34.0064 21.3747 34.7735 22.6142 35.2977C23.8536 35.822 25.1829 36.093 26.5258 36.0953C28.0583 36.0883 29.5688 35.7252 30.9414 35.0339L34.9742 39.1244L26.5258 47.6938Z" fill="black"/>
<path d="M3 3L50 51" stroke="#FF3F3F" stroke-width="6" stroke-linecap="round"/>
</svg>
