<svg width="14" height="16" viewBox="0 0 14 16" fill="none" xmlns="http://www.w3.org/2000/svg">
<path d="M11.2782 11.1627C10.7013 11.7794 9.57383 12.9847 8.6651 13.9561C7.92286 14.7495 6.66517 14.7494 5.92292 13.9559C5.03097 13.0025 3.92334 11.8184 3.30995 11.1627C1.10957 8.81062 1.10957 4.99707 3.30995 2.64495C5.51032 0.292829 9.07783 0.292829 11.2782 2.64495C13.4786 4.99707 13.4786 8.81062 11.2782 11.1627Z" stroke="#5F6174" stroke-width="1.4086" stroke-linecap="round" stroke-linejoin="round"/>
<path d="M9.40698 6.90385C9.40698 8.15125 8.461 9.16247 7.29408 9.16247C6.12715 9.16247 5.18117 8.15125 5.18117 6.90385C5.18117 5.65645 6.12715 4.64523 7.29408 4.64523C8.461 4.64523 9.40698 5.65645 9.40698 6.90385Z" stroke="#5F6174" stroke-width="1.4086" stroke-linecap="round" stroke-linejoin="round"/>
</svg>
